<svg xmlns="http://www.w3.org/2000/svg" viewBox="0 0 1200 900" width="1200" height="900" role="img">
  <defs>
    <linearGradient id="bg6qu4om" x1="0" y1="0" x2="0.3" y2="1">
      <stop offset="0" stop-color="#e9eef5"/>
      <stop offset="1" stop-color="#d0d8e3"/>
    </linearGradient>
    <radialGradient id="spot6qu4om" cx="0.5" cy="0.32" r="0.7">
      <stop offset="0" stop-color="#ffffff" stop-opacity="0.85"/>
      <stop offset="1" stop-color="#ffffff" stop-opacity="0"/>
    </radialGradient>
    <linearGradient id="steel6qu4om" x1="0" y1="0" x2="1" y2="1">
      <stop offset="0" stop-color="#ffffff" stop-opacity="0.9"/>
      <stop offset="0.5" stop-color="#eef1f5" stop-opacity="0.2"/>
      <stop offset="1" stop-color="#c7cdd6" stop-opacity="0.55"/>
    </linearGradient>
    <linearGradient id="glass6qu4om" x1="0" y1="0" x2="1" y2="1">
      <stop offset="0" stop-color="#f4f6f9"/>
      <stop offset="1" stop-color="#aab2be"/>
    </linearGradient>
    <linearGradient id="screen6qu4om" x1="0" y1="0" x2="1" y2="1">
      <stop offset="0" stop-color="#243056"/>
      <stop offset="0.5" stop-color="#3c4a7d"/>
      <stop offset="1" stop-color="#191f33"/>
    </linearGradient>
  </defs>
  <rect width="1200" height="900" fill="url(#bg6qu4om)"/>
  <rect y="648" width="1200" height="252.00000000000003" fill="#000000" opacity="0.06"/>
  <rect x="384" y="54" width="528" height="720" rx="18" fill="#e6001a" opacity="0.1"/>
  <rect width="1200" height="900" fill="url(#spot6qu4om)"/>
  <ellipse cx="624" cy="720" rx="240" ry="31.500000000000004" fill="#0b0e13" opacity="0.14"/>
  
      <rect x="360" y="198" width="528" height="180" rx="20" fill="#ffffff" stroke="#c2c7d0" stroke-width="3"/>
      <rect x="360" y="198" width="528" height="180" rx="20" fill="url(#steel6qu4om)"/>
      <rect x="396" y="333" width="456" height="10" rx="5" fill="#cfd4dc"/>
      <rect x="396" y="270" width="288" height="6" rx="3" fill="#e2e5ea"/>
      <circle cx="828" cy="252.00000000000003" r="7" fill="#E30613"/>
      <g stroke="#dfe3ea" stroke-width="4">
        <line x1="396" y1="369" x2="852" y2="369"/>
      </g>
  
</svg>