<svg xmlns="http://www.w3.org/2000/svg" viewBox="0 0 900 900" width="900" height="900" role="img">
  <defs>
    <linearGradient id="bgxjh97b" x1="0" y1="0" x2="0.3" y2="1">
      <stop offset="0" stop-color="#fbfcfd"/>
      <stop offset="1" stop-color="#eef1f5"/>
    </linearGradient>
    <radialGradient id="spotxjh97b" cx="0.5" cy="0.32" r="0.7">
      <stop offset="0" stop-color="#ffffff" stop-opacity="0.85"/>
      <stop offset="1" stop-color="#ffffff" stop-opacity="0"/>
    </radialGradient>
    <linearGradient id="steelxjh97b" x1="0" y1="0" x2="1" y2="1">
      <stop offset="0" stop-color="#ffffff" stop-opacity="0.9"/>
      <stop offset="0.5" stop-color="#eef1f5" stop-opacity="0.2"/>
      <stop offset="1" stop-color="#c7cdd6" stop-opacity="0.55"/>
    </linearGradient>
    <linearGradient id="glassxjh97b" x1="0" y1="0" x2="1" y2="1">
      <stop offset="0" stop-color="#f4f6f9"/>
      <stop offset="1" stop-color="#aab2be"/>
    </linearGradient>
    <linearGradient id="screenxjh97b" x1="0" y1="0" x2="1" y2="1">
      <stop offset="0" stop-color="#243056"/>
      <stop offset="0.5" stop-color="#3c4a7d"/>
      <stop offset="1" stop-color="#191f33"/>
    </linearGradient>
  </defs>
  <rect width="900" height="900" fill="url(#bgxjh97b)"/>
  <rect y="648" width="900" height="252.00000000000003" fill="#000000" opacity="0.06"/>
  <rect x="288" y="54" width="396" height="720" rx="18" fill="#e6001a" opacity="0.06"/>
  <rect width="900" height="900" fill="url(#spotxjh97b)"/>
  <ellipse cx="468" cy="720" rx="180" ry="31.500000000000004" fill="#0b0e13" opacity="0.14"/>
  
      <rect x="342" y="144" width="252.00000000000003" height="558" rx="22" fill="#ffffff" stroke="#c2c7d0" stroke-width="3"/>
      <rect x="342" y="144" width="252.00000000000003" height="558" rx="22" fill="url(#steelxjh97b)"/>
      <rect x="369" y="189" width="198" height="54" rx="8" fill="#e5e8ee"/>
      <circle cx="549" cy="216" r="7" fill="#E30613"/>
      <circle cx="468" cy="468" r="171" fill="#eaedf2" stroke="#c2c7d0" stroke-width="4"/>
      <circle cx="468" cy="468" r="166.5" fill="none" stroke="#9aa1ad" stroke-width="10"/>
      <circle cx="468" cy="468" r="99" fill="#cfd4dc"/>
      <circle cx="468" cy="468" r="99" fill="url(#glassxjh97b)"/>
  
</svg>